<svg xmlns="http://www.w3.org/2000/svg" width="45" height="42" fill="none"><path fill="#AFB1B8" d="M7.4063 41.1014a.1357.1357 0 0 1 .046.0092.1217.1217 0 0 1 .0385.024l.2181.2085c-.1693.1687-.3785.3037-.6134.3957a2.3904 2.3904 0 0 1-.8698.1421 2.3144 2.3144 0 0 1-.818-.1327c-.2338-.085-.444-.2126-.6161-.3743-.1757-.1677-.311-.3643-.398-.5781a1.9267 1.9267 0 0 1-.1391-.7416 1.7988 1.7988 0 0 1 .15-.7439c.0952-.2152.2389-.4117.4225-.5781.1862-.1631.409-.2914.6544-.3767a2.5649 2.5649 0 0 1 .8425-.1327 2.2698 2.2698 0 0 1 .7825.1208c.216.0814.4142.1944.5862.3341l-.1827.2227a.1782.1782 0 0 1-.0464.0403.1252.1252 0 0 1-.0736.0166.1775.1775 0 0 1-.079-.0237l-.0982-.0593-.1363-.0758a1.5507 1.5507 0 0 0-.1827-.0734 1.8887 1.8887 0 0 0-.2481-.0592 1.8919 1.8919 0 0 0-.3245-.0237 1.759 1.759 0 0 0-.6052.0995c-.1792.0629-.3409.1582-.4744.2795-.136.1291-.2408.2806-.3081.4455a1.4986 1.4986 0 0 0-.1118.5875 1.5298 1.5298 0 0 0 .1118.5971c.0665.1634.1693.314.3026.443.1249.1203.2797.2143.4526.2749.178.0641.369.0963.5617.0947a2.3683 2.3683 0 0 0 .3326-.0189 1.3162 1.3162 0 0 0 .5044-.1588 1.6426 1.6426 0 0 0 .2154-.1469.1712.1712 0 0 1 .1036-.0379ZM13.7044 40.0538a1.8092 1.8092 0 0 1-.1472.7368c-.0888.2137-.2288.4087-.4107.572-.1819.1634-.4015.2914-.6444.3756a2.6553 2.6553 0 0 1-1.6577 0c-.2414-.0855-.4596-.2138-.6407-.3767-.1818-.1663-.3227-.3629-.4144-.578-.1964-.4772-.1964-.9988 0-1.4759.093-.2153.2338-.4125.4144-.5805.1827-.1577.4008-.2811.6407-.3624a2.6105 2.6105 0 0 1 1.6577 0c.2422.0855.4613.2137.6434.3767.1795.1646.3195.3587.4117.5709.101.2372.1509.4886.1472.7415Zm-.5725 0a1.5659 1.5659 0 0 0-.1036-.5923c-.0611-.1635-.1604-.3143-.2917-.443-.1279-.1217-.2853-.2172-.4608-.2795a1.9176 1.9176 0 0 0-1.2051 0c-.1755.0623-.3329.1578-.4608.2795-.1331.1279-.2335.2789-.2944.443a1.7382 1.7382 0 0 0 0 1.1846c.0615.1639.1618.3148.2944.443.128.121.2854.2157.4608.2772a1.9653 1.9653 0 0 0 1.2051 0c.1754-.0615.3328-.1562.4608-.2772.1307-.129.2299-.2797.2917-.443a1.552 1.552 0 0 0 .1036-.5923ZM18.0013 40.6748l.0573.1326c.0218-.0474.0409-.09.0627-.1326a1.193 1.193 0 0 1 .0709-.1303l1.3932-2.2006c.0273-.0379.0518-.0616.0791-.0687a.373.373 0 0 1 .1145-.0118h.4117v3.5792h-.4881v-2.7431a.9724.9724 0 0 1 0-.1231l-1.4014 2.2313a.203.203 0 0 1-.082.0815.2469.2469 0 0 1-.1197.0299h-.0791a.2439.2439 0 0 1-.12-.0295.2015.2015 0 0 1-.0818-.0819l-1.4423-2.2455v2.8733h-.4716v-3.5721h.4117a.3736.3736 0 0 1 .1145.0118.1536.1536 0 0 1 .0763.0687l1.4232 2.203a.7529.7529 0 0 1 .0709.1279ZM23.2444 40.4969v1.3407h-.5453v-3.5744h1.216a2.604 2.604 0 0 1 .6789.0782c.1765.0435.3401.1194.4799.2227.1211.0968.2144.2168.2726.3505.0644.1458.0958.3011.0927.4572a1.0247 1.0247 0 0 1-.1009.4572c-.0655.1371-.1662.2594-.2944.3576a1.3924 1.3924 0 0 1-.4826.2369 2.3066 2.3066 0 0 1-.6571.0829l-.6598-.0095Zm0-.3837h.6598c.1433.0016.286-.0168.4226-.0545a.9232.9232 0 0 0 .3054-.1539.6355.6355 0 0 0 .1854-.2369.6873.6873 0 0 0 .0654-.3008.6045.6045 0 0 0-.0547-.2912.6897.6897 0 0 0-.1907-.2442c-.2083-.1413-.4699-.2097-.7334-.1918h-.6598v1.4733ZM30.5731 41.8424h-.4308a.2043.2043 0 0 1-.12-.0331.2246.2246 0 0 1-.0709-.0829l-.3708-.8647h-1.8621l-.3845.8647a.1956.1956 0 0 1-.0681.0805.2035.2035 0 0 1-.1227.0355h-.4308l1.6359-3.5795h.5671l1.6577 3.5795Zm-2.6992-1.329h1.5377l-.6489-1.4569a2.3666 2.3666 0 0 1-.1227-.3364l-.0627.1871a1.6933 1.6933 0 0 1-.06.1517l-.6434 1.4545ZM32.9288 38.2795a.2332.2332 0 0 1 .0818.064l2.3856 2.6983V38.263h.4881v3.5795h-.2727a.2653.2653 0 0 1-.1118-.0213.297.297 0 0 1-.0872-.0664l-2.3829-2.6959a.974.974 0 0 1 0 .1232v2.6604h-.4881V38.263h.289a.2585.2585 0 0 1 .0982.0165ZM39.9031 40.4189v1.4213h-.5453v-1.4213l-1.5077-2.1558h.488a.1965.1965 0 0 1 .1173.0308.3104.3104 0 0 1 .0736.0806l.9434 1.3905c.0381.0593.0708.1137.0981.1659a1.41 1.41 0 0 1 .0682.1516l.0709-.154a1.2326 1.2326 0 0 1 .0927-.1635l.9297-1.4a.3734.3734 0 0 1 .0709-.0758.1823.1823 0 0 1 .1172-.0356h.4935l-1.5105 2.1653ZM17.7314 32.2561c.2372.0261.4772.0474.7198.0664 3.6789-1.4299 6.791-3.7702 8.9475-6.7283 2.1565-2.9582 3.2616-6.403 3.1772-9.9038l-4.0543-3.5226c.8244 3.7273.4388 7.5804-1.1136 11.1281-1.5525 3.5478-4.2104 6.6502-7.6766 8.9602Z"/><path fill="#AFB1B8" d="m16.2837 32.0923.1091.0189c3.7038-2.3018 6.5277-5.5161 8.1065-9.2273 1.5787-3.7112 1.8396-7.7486.749-11.59l-5.7746-5.0172c2.3357 4.1241 3.2758 8.7395 2.7111 13.3095-.5647 4.57-2.6111 8.9068-5.9011 12.5061ZM35.868 19.8266c-.9811 3.8466-3.3638 7.3157-6.7944 9.8923-1.0019.7567-2.0826 1.4308-3.2281 2.0136 2.7934-.7134 5.361-1.9746 7.5048-3.6865 2.1437-1.7118 3.8064-3.8285 4.8597-6.1869l-2.342-2.0325Z"/><path fill="#AFB1B8" d="m34.949 19.2602-3.3344-2.8972c-.0638 3.3031-1.1446 6.5311-3.1301 9.3485-1.9855 2.8174-4.8032 5.1213-8.1603 6.6723h.0164a21.771 21.771 0 0 0 2.2384-.116c3.1374-1.1126 5.909-2.8828 8.0674-5.1525 2.1585-2.2697 3.6366-4.9683 4.3026-7.8551ZM16.7663 4.161 12.7883.7c-3.556 1.194-6.6145 3.2929-8.775 6.022C1.853 9.4514.6912 12.6837.6802 15.996c.0133 3.66 1.4312 7.2117 4.0292 10.0929 2.598 2.8811 6.2278 4.9271 10.3148 5.8142 3.6484-3.8621 5.7845-8.6343 6.0978-13.6233.3133-4.989-1.2125-9.9348-4.3556-14.1188ZM44.1401 18.7274c-.0144-4.3425-2.0062-8.5036-5.5404-11.5742-3.5341-3.0706-8.3233-4.8011-13.3213-4.8136-2.3096-.0021-4.5995.3681-6.7535 1.092l24.3556 21.1611c.8339-1.8706 1.261-3.8593 1.2596-5.8653Z"/></svg>