<svg xmlns="http://www.w3.org/2000/svg" width="16" height="13" fill="none"><path fill="#757575" d="M14.5.9884h-13C.673.9884 0 1.661 0 2.4879v8.9969c0 .8269.6729 1.4995 1.5 1.4995h13c.8271 0 1.5-.6726 1.5-1.4995V2.4879c0-.8269-.6729-1.4995-1.5-1.4995Zm0 .9997c.0679 0 .1325.014.1916.0386L8 7.8244 1.3083 2.0268A.498.498 0 0 1 1.5 1.988h13Zm0 9.9965h-13c-.2759 0-.5-.224-.5-.4998V3.0829l6.6724 5.7807A.4995.4995 0 0 0 8 8.9856a.4994.4994 0 0 0 .3276-.122L15 3.083v8.4019a.5002.5002 0 0 1-.5.4998Z"/></svg>