<svg xmlns="http://www.w3.org/2000/svg" width="70" height="70" fill="none"><path fill="#2196F3" d="M69.9433 9.8964a1.1682 1.1682 0 0 0-.9415-.7934l-4.179-.6079-1.8702-3.787c-.392-.798-1.6999-.798-2.0918 0l-1.8702 3.787-4.1792.608a1.1694 1.1694 0 0 0-.9427.7934c-.1364.4223-.0234.8866.2952 1.1959l3.0252 2.9483-.7139 4.1627c-.0747.4375.105.8797.4632 1.1411a1.1612 1.1612 0 0 0 1.2296.0886l3.7381-1.9659 3.7381 1.9659c.1704.0898.3582.1341.5437.1341.2415 0 .4831-.0747.6861-.2229a1.1647 1.1647 0 0 0 .4632-1.141l-.7139-4.1628 3.0252-2.9482a1.1704 1.1704 0 0 0 .2948-1.196Zm-5.3877 2.9027a1.1668 1.1668 0 0 0-.3348 1.0325l.4177 2.4372-2.1886-1.1504a1.1647 1.1647 0 0 0-.5438-.1341c-.1866 0-.3721.0443-.5437.1341l-2.1888 1.1504.4177-2.4372a1.1677 1.1677 0 0 0-.3348-1.0325l-1.7722-1.7267 2.4477-.3558a1.1665 1.1665 0 0 0 .8786-.6383l1.0943-2.2166 1.0943 2.2166c.1704.3442.4982.5834.8786.6383l2.4477.3558-1.7699 1.7267ZM57.167 44.8923h-2.3334v2.3334h2.3334v-2.3334ZM57.167 49.5591h-2.3334v2.3334h2.3334v-2.3334ZM59.5004 47.2257H57.167v2.3334h2.3334v-2.3334ZM54.8337 47.2257h-2.3334v2.3334h2.3334v-2.3334ZM49.0002 57.7259h-2.3334v2.3334h2.3334v-2.3334ZM49.0002 62.3926h-2.3334v2.3334h2.3334v-2.3334ZM51.3337 60.0593h-2.3335v2.3334h2.3335v-2.3334ZM46.6668 60.0593h-2.3334v2.3334h2.3334v-2.3334ZM35 53.0592h-2.3334v2.3334H35v-2.3334ZM35 57.7259h-2.3334v2.3334H35v-2.3334ZM37.3334 55.3925H35v2.3334h2.3334v-2.3334ZM32.6666 55.3925h-2.3334v2.3334h2.3334v-2.3334ZM12.833 13.3918h-2.3334v2.3334h2.3334v-2.3334ZM12.833 18.0587h-2.3334v2.3334h2.3334v-2.3334Z"/><path fill="#2196F3" d="M15.1663 15.7252h-2.3334v2.3334h2.3334v-2.3334ZM10.4996 15.7252H8.1662v2.3334h2.3334v-2.3334Z"/><path fill="#212121" d="M54.0635 30.9738c-.6288-.8482-1.5516-1.3941-2.5993-1.5412-1.0524-.1493-2.0908.1271-2.9308.77l-2.7382 2.0988-.0012.0012-4.1512 3.0999-2.9704-1.1831c5.2967-2.3765 8.9987-7.6744 8.9987-13.8252 0-8.3628-6.831-15.1668-15.2275-15.1668-8.3966 0-15.2275 6.804-15.2275 15.1668 0 3.0311.9065 5.8497 2.4501 8.2216l-6.0458-.0525h-.0105c-.0188 0-.0338.0093-.0513.0105a1.1394 1.1394 0 0 0-.3395.0677c-.028.0105-.0571.0164-.0839.0291-.014.0059-.0281.007-.042.014l-7.0724 3.4918c-.0013 0-.0024 0-.0024.0011l-4.1418 1.9917a.915.915 0 0 0-.1377.077C.088 35.3452-.4743 37.5036.43 39.2676c.4819.938 1.302 1.6287 2.31 1.9448a3.9526 3.9526 0 0 0 1.1796.1809c.6335 0 1.2612-.1552 1.8363-.462l3.0357-1.6146 4.9526-2.5574 2.9681-.0175L4.8084 48.5884c-.001.0012-.0023.0012-.0035.0023l-2.9284 2.9167c-.6918.6884-1.0722 1.6018-1.0722 2.5761 0 .973.3804 1.8888 1.0722 2.5784.7105.707 1.645 1.0616 2.5795 1.0616.9357 0 1.869-.3546 2.5818-1.0616l2.8747-2.8631 3.8081-2.8432 1.9706 1.9623-3.8537 3.8372c-.0011.0013-.0023.0013-.0035.0023l-2.9284 2.9167c-.6919.6884-1.0722 1.6018-1.0722 2.5761 0 .9731.3803 1.8888 1.0722 2.5784.7105.707 1.6462 1.0617 2.5807 1.0617.9345 0 1.8702-.3547 2.5818-1.0617l2.9296-2.9166 4.6865-4.6667c.0012-.0013.0012-.0024.0023-.0036l2.2086-2.1875-.0082-.0082c.0139-.014.0338-.0188.0478-.0338l11.3006-12.3773 7.5928 1.0803c.0548.0082.1096.0117.1644.0117.1413 0 .2777-.0338.4095-.084.0386-.0139.0723-.0327.1086-.0513.042-.021.0862-.0326.126-.0594l7.0293-4.6667c.0257-.0175.0396-.0456.0641-.0642.028-.0221.063-.0314.0886-.056l2.7813-2.6052c1.4472-1.356 1.6467-3.5773.4636-5.1663ZM4.6602 38.8722c-.379.203-.8096.2437-1.2214.1132-.4084-.1272-.7397-.4061-.9334-.7829-.3523-.686-.1482-1.5214.469-1.9729l2.8735-1.3825.6918 2.0218.2906.8493-2.17 1.154Zm7.65-3.9982-3.3869 1.7501-.5587-1.6334-.4013-1.1738 4.4334-2.1887-.0865 3.2458Zm33.03-14.4821c0 2.009-.4795 3.9038-1.3102 5.5988l-9.1468-4.1545c-.0957-1.2541-.7466-2.352-1.7243-3.0357l3.2025-10.632c5.2012 1.6545 8.9788 6.5067 8.9788 12.2234Zm-25.7883 0c0-7.076 5.7844-12.8336 12.8941-12.8336.5531 0 1.0943.0466 1.6299.1143l-3.1326 10.3987c-.0419-.0012-.0816-.0128-.1248-.0128-2.2588 0-4.0963 1.8316-4.0963 4.0834 0 2.2517 1.8375 4.0835 4.0963 4.0835 1.519 0 2.8315-.8388 3.5397-2.0663l8.4491 3.8384c-2.3509 3.164-6.1135 5.228-10.3614 5.228-7.1096 0-12.894-5.7576-12.894-12.8336Zm13.0295 1.75c0 .9649-.7911 1.75-1.7629 1.75-.9718 0-1.7629-.7851-1.7629-1.75 0-.9648.7911-1.75 1.7629-1.75.9718 0 1.7629.7852 1.7629 1.75ZM5.3918 55.0074c-.5168.5122-1.3534.5111-1.869.0013-.2485-.2486-.385-.5763-.385-.9252 0-.3477.1365-.6756.385-.9217l2.1046-2.0966 1.862 1.8539-2.0976 2.0883Zm7.0304 8.1669c-.5168.5122-1.3545.5134-1.8702.0012-.2486-.2485-.3851-.5762-.3851-.9252 0-.3476.1365-.6755.3851-.9216l2.1059-2.0977.8809.8762.9823.9777-2.0989 2.0894Zm7.6161-7.5881c-.0012.0011-.0023.0011-.0035.0023l-3.8606 3.85-.8809-.8762-.9823-.9777 3.857-3.8395v-.0011c.0012-.0012.0023-.0012.0035-.0023.0875-.0875.1424-.1925.1961-.2963.0152-.0304.0443-.0561.0572-.0875.0362-.0898.0419-.1866.056-.2812.007-.0538.0304-.1038.0304-.1588 0-.0782-.0281-.1539-.0443-.231-.014-.07-.014-.1413-.0409-.2088-.0443-.1097-.1202-.2065-.1995-.3011-.0221-.0257-.0303-.0584-.0548-.0828h-.0012c-.0013-.0011-.0013-.0036-.0024-.0047l-3.5152-3.5c-.0373-.0374-.0852-.0525-.1272-.084-.0618-.0478-.1212-.0921-.1901-.126-.0665-.0327-.1342-.0525-.2042-.0713-.0746-.021-.1469-.0373-.2251-.0432-.0713-.0046-.1377.0024-.2088.0106-.0782.0093-.1516.0198-.2275.0443-.0736.0233-.1388.0594-.2065.098-.0432.0245-.0921.0327-.133.063l-3.8792 2.8958-1.9705-1.9624 5.2477-5.2197 9.5389 9.3814-2.0291 2.0102Zm14.9161-15.349c-.0337-.0047-.0653.0082-.0991.0059a1.1477 1.1477 0 0 0-.252.0151c-.0664.0117-.1294.0245-.1925.0467-.0746.0257-.1423.0607-.2112.1026a1.1309 1.1309 0 0 0-.182.1342c-.028.0244-.0618.0362-.0875.0641L23.6527 51.862l-9.4677-9.3114 6.1975-6.1647c.4562-.455.4585-1.1936.0035-1.6509-.2298-.2298-.532-.343-.8341-.3418v-.0011l-4.8535.0291.0607-3.5163 6.7901.0584c2.7674 2.8304 6.6268 4.5956 10.8968 4.5956.9567 0 1.8901-.0991 2.7988-.2684.0875.07.1738.1412.2836.1855l5.2711 2.1001.3336 1.6589.3897 1.9367-6.5684-.9345Zm8.84.3896-.6848-3.4079 3.164-2.3625.8284 1.099 1.2425 1.6496-4.5501 3.0218Zm8.2111-6.1927-1.8329 1.7173-2.037-2.7043 1.8188-1.3942c.3395-.2612.7677-.3675 1.1877-.3126.4223.0594.7957.28 1.05.6218.4737.6382.3932 1.5284-.1866 2.072Z"/><path fill="#212121" d="m29.7545 40.5651-4.6877-4.6667c-.4538-.4538-1.1913-.4538-1.6463 0l-4.6865 4.6667a1.1722 1.1722 0 0 0-.343.8271c0 .3104.1225.6079.343.8272l4.6865 4.6667c.2275.2263.5263.3395.8238.3395s.5961-.1132.8225-.3395l4.6877-4.6667a1.1713 1.1713 0 0 0 .3442-.8272c0-.3103-.1238-.6078-.3442-.8271Zm-5.5102 3.8477-3.0334-3.0206 3.0334-3.0205 3.0345 3.0205-3.0345 3.0206ZM37.5468 11.0923l-.5635 2.2657c.1552.0386 3.8011.9882 3.8011 4.7006h2.3334c-.0001-4.4125-3.6436-6.4868-5.571-6.9663ZM43.1178 20.3919h-2.3334v2.3334h2.3334v-2.3334Z"/></svg>